<?xml version="1.0" encoding="UTF-8"?>
<svg viewBox="0 0 65 64" version="1.1" xmlns="http://www.w3.org/2000/svg" xmlns:xlink="http://www.w3.org/1999/xlink">
    <g id="Page-1" stroke="none" stroke-width="1" fill="none" fill-rule="evenodd">
        <rect id="rect3414" fill="#000000" fill-rule="nonzero" transform="translate(18.499177, 24.448384) rotate(-45.000000) translate(-18.499177, -24.448384) " x="14.9637112" y="23.4483939" width="7.07093219" height="1.99998082"></rect>
        <rect id="rect3416" fill="#000000" fill-rule="nonzero" transform="translate(21.999177, 26.948384) rotate(-45.000000) translate(-21.999177, -26.948384) " x="17.7567179" y="25.9483939" width="8.48491863" height="1.99998082"></rect>
        <rect id="rect3418" fill="#000000" fill-rule="nonzero" transform="translate(41.499077, 24.448484) rotate(-45.000000) translate(-41.499077, -24.448484) " x="37.9636112" y="23.4484939" width="7.07093219" height="1.99998082"></rect>
        <rect id="rect3420" fill="#000000" fill-rule="nonzero" transform="translate(44.998977, 26.948484) rotate(-45.000000) translate(-44.998977, -26.948484) " x="40.7565179" y="25.9484939" width="8.48491863" height="1.99998082"></rect>
        <path d="M23,43.948 L41,43.948 C41.552,43.948 42,43.501 42,42.948 C42,39.639 39.309,36.948 36,36.948 L28,36.948 C24.691,36.948 22,39.639 22,42.948 C22,43.501 22.448,43.948 23,43.948 Z M29,38.948 L31,38.948 L31,41.948 L29,41.948 L29,38.948 Z M35,41.948 L33,41.948 L33,38.948 L35,38.948 L35,41.948 Z M39.873,41.948 L37,41.948 L37,39.089 C38.401,39.453 39.511,40.546 39.873,41.948 Z M27,39.089 L27,41.948 L24.126,41.948 C24.489,40.546 25.599,39.453 27,39.089 Z" id="path3422" fill="#000000" fill-rule="nonzero"></path>
        <rect id="rect3424" fill="#000000" fill-rule="nonzero" x="27" y="45.948" width="2" height="2"></rect>
        <rect id="rect3426" fill="#000000" fill-rule="nonzero" x="31" y="45.948" width="2" height="2"></rect>
        <rect id="rect3428" fill="#000000" fill-rule="nonzero" x="35" y="45.948" width="2" height="2"></rect>
        <path d="M63.823,62.383 C60.329,57.322 55.075,52.959 48.933,49.939 C53.296,45.591 56,39.579 56,32.948 L56,28.948 C56,26.399 55.597,23.944 54.857,21.637 L56.447,20.842 C56.786,20.673 57,20.327 57,19.948 L57,17.669 L59.316,16.897 C59.725,16.761 60,16.379 60,15.948 L60,13.669 L62.316,12.896 L61.684,11 L58.684,12 C58.275,12.136 58,12.517 58,12.948 L58,15.227 L55.684,16 C55.275,16.136 55,16.517 55,16.948 L55,19.33 L54.163,19.748 C53.523,18.212 52.728,16.758 51.798,15.402 L53.316,14.896 C53.725,14.761 54,14.379 54,13.948 L54,11.669 L56.316,10.896 C56.725,10.761 57,10.379 57,9.948 L57,7.669 L59.316,6.897 C59.725,6.761 60,6.379 60,5.948 L60,3.483 L62.555,1.78 L61.446,0.116 L58.446,2.116 C58.167,2.302 58,2.614 58,2.948 L58,5.227 L55.684,6 C55.275,6.136 55,6.518 55,6.948 L55,9.227 L52.684,10 C52.275,10.136 52,10.517 52,10.948 L52,13.227 L50.533,13.716 C49.504,12.466 48.349,11.324 47.091,10.304 L48.316,9.896 C48.725,9.761 49,9.379 49,8.948 L49,6.669 L51.316,5.897 C51.725,5.761 52,5.379 52,4.948 L52,2.669 L54.316,1.896 L53.684,0 L50.684,1 C50.275,1.136 50,1.518 50,1.948 L50,4.227 L47.684,5 C47.275,5.136 47,5.518 47,5.948 L47,8.227 L45.107,8.858 C41.336,6.39 36.834,4.948 32,4.948 C27.166,4.948 22.664,6.39 18.893,8.859 L17,8.227 L17,5.948 C17,5.518 16.725,5.136 16.316,5 L14,4.228 L14,1.948 C14,1.518 13.725,1.136 13.316,1 L10.316,0 L9.684,1.896 L12,2.669 L12,4.948 C12,5.379 12.275,5.76 12.684,5.896 L15,6.669 L15,8.948 C15,9.379 15.275,9.76 15.684,9.896 L16.909,10.304 C15.651,11.324 14.496,12.466 13.467,13.716 L12,13.227 L12,10.948 C12,10.517 11.725,10.136 11.316,10 L9,9.227 L9,6.948 C9,6.518 8.725,6.136 8.316,6 L6,5.228 L6,2.948 C6,2.614 5.833,2.301 5.555,2.116 L2.555,0.116 L1.445,1.78 L4,3.483 L4,5.948 C4,6.379 4.275,6.76 4.684,6.896 L7,7.669 L7,9.948 C7,10.379 7.275,10.76 7.684,10.896 L10,11.669 L10,13.948 C10,14.379 10.275,14.76 10.684,14.896 L12.202,15.402 C11.272,16.757 10.477,18.212 9.837,19.748 L9,19.33 L9,16.948 C9,16.517 8.725,16.136 8.316,16 L6,15.227 L6,12.948 C6,12.517 5.725,12.136 5.316,12 L2.316,11 L1.683,12.896 L4,13.669 L4,15.948 C4,16.379 4.275,16.76 4.684,16.896 L7,17.669 L7,19.948 C7,20.327 7.214,20.673 7.553,20.843 L9.143,21.638 C8.403,23.944 8,26.399 8,28.948 L8,32.948 C8,39.579 10.704,45.59 15.067,49.938 C8.924,52.958 3.671,57.32 0.177,62.38 C0.062,62.547 0,62.745 0,62.948 L0,63.948 L2,63.948 L2,63.262 C5.438,58.393 10.617,54.216 16.659,51.388 C19.865,54.06 23.776,55.909 28.068,56.62 C28.174,57.242 28.423,57.811 28.782,58.301 L27.072,62.577 C27.024,62.695 27,62.821 27,62.948 L27,63.948 L29,63.948 L29,63.14 L30.41,59.614 C30.898,59.826 31.434,59.947 32,59.947 C32.565,59.947 33.102,59.826 33.59,59.614 L35,63.141 L35,63.949 L37,63.949 L37,62.949 C37,62.822 36.976,62.696 36.929,62.578 L35.219,58.302 C35.578,57.813 35.826,57.243 35.933,56.621 C40.224,55.91 44.135,54.061 47.341,51.389 C53.383,54.217 58.562,58.396 62.001,63.266 L62.001,63.949 L64.001,63.949 L64.001,62.952 C64,62.748 63.938,62.55 63.823,62.383 Z M32,6.948 C42.764,6.948 51.742,14.721 53.629,24.948 L51.941,24.948 C51.441,20.455 47.624,16.948 43,16.948 C38.376,16.948 34.558,20.455 34.059,24.948 L29.941,24.948 C29.441,20.455 25.624,16.948 21,16.948 C16.376,16.948 12.558,20.455 12.059,24.948 L10.371,24.948 C12.258,14.722 21.235,6.948 32,6.948 Z M50,25.948 C50,29.807 46.86,32.948 43,32.948 C39.14,32.948 36,29.807 36,25.948 C36,22.089 39.14,18.948 43,18.948 C46.86,18.948 50,22.089 50,25.948 Z M28,25.948 C28,29.807 24.86,32.948 21,32.948 C17.14,32.948 14,29.807 14,25.948 C14,22.089 17.14,18.948 21,18.948 C24.86,18.948 28,22.089 28,25.948 Z M10,32.948 L10,28.948 C10,28.273 10.035,27.607 10.095,26.948 L12.059,26.948 C12.558,31.441 16.376,34.948 21,34.948 C25.624,34.948 29.441,31.441 29.941,26.948 L34.059,26.948 C34.558,31.441 38.376,34.948 43,34.948 C47.624,34.948 51.441,31.441 51.941,26.948 L53.905,26.948 C53.965,27.607 54,28.273 54,28.948 L54,32.948 C54,45.079 44.131,54.948 32,54.948 C19.869,54.948 10,45.079 10,32.948 Z M32,57.948 C31.234,57.948 30.575,57.51 30.239,56.877 C30.821,56.919 31.407,56.948 32,56.948 C32.593,56.948 33.178,56.919 33.761,56.877 C33.425,57.511 32.766,57.948 32,57.948 Z" id="path3430" fill="#000000" fill-rule="nonzero"></path>
        <rect id="rect3432" fill="#000000" fill-rule="nonzero" x="26" y="13.948" width="12" height="2"></rect>
        <rect id="rect3434" fill="#000000" fill-rule="nonzero" x="26" y="9.948" width="12" height="2"></rect>
        <path d="M49,43.948 L49,41.948 C47.346,41.948 46,40.602 46,38.948 L44,38.948 C44,41.705 46.243,43.948 49,43.948 Z" id="path3436" fill="#000000" fill-rule="nonzero"></path>
        <path d="M20,38.948 L18,38.948 C18,40.602 16.654,41.948 15,41.948 L15,43.948 C17.757,43.948 20,41.705 20,38.948 Z" id="path3438" fill="#000000" fill-rule="nonzero"></path>
    </g>
</svg>
