<?xml version="1.0" encoding="UTF-8"?>
<svg width="86px" height="66px" viewBox="0 0 86 66" version="1.1" xmlns="http://www.w3.org/2000/svg" xmlns:xlink="http://www.w3.org/1999/xlink">
    <!-- Generator: Sketch 43.2 (39069) - http://www.bohemiancoding.com/sketch -->
    <title>Slice 1</title>
    <desc>Created with Sketch.</desc>
    <defs></defs>
    <g id="Page-1" stroke="none" stroke-width="1" fill="none" fill-rule="evenodd">
        <path d="M78.923,51.588 C79.045,51.019 79.109,50.43 79.109,49.824 C79.109,45.19 75.353,41.434 70.719,41.434 C66.085,41.434 62.329,45.19 62.329,49.824 C62.329,51.059 62.596,52.233 63.077,53.289 C61.538,54.658 60.31,56.369 59.511,58.301 C57.951,57.114 56.003,56.409 53.891,56.409 C52.467,56.409 51.12,56.731 49.914,57.303 L49.914,39.482 L50.558,39.482 L50.031,38.304 C50.296,37.847 50.551,37.376 50.795,36.893 L58.622,39.481 L58.622,36.882 L53.364,29.86 C54.079,26.945 54.47,23.798 54.47,20.513 C54.47,12.343 52.058,5.016 48.24,0.032 C44.422,5.016 42.01,12.343 42.01,20.513 C42.01,23.798 42.401,26.945 43.116,29.86 L37.858,36.882 L37.858,39.481 L45.685,36.893 C45.929,37.376 46.184,37.847 46.449,38.304 L45.922,39.482 L46.566,39.482 L46.566,57.76 C44.88,56.26 42.659,55.347 40.225,55.347 C39.348,55.347 38.498,55.465 37.692,55.687 C37.419,51.942 34.294,48.988 30.48,48.988 C28.795,48.988 27.245,49.564 26.016,50.531 C23.404,48.873 20.305,47.913 16.982,47.913 C7.656,47.913 0.096,55.473 0.096,64.799 C0.096,65.192 0.111,65.581 0.137,65.967 L85.695,65.967 C85.836,65.179 85.909,64.368 85.909,63.54 C85.906,58.412 83.092,53.941 78.923,51.588 Z" id="Shape" fill="#000000" fill-rule="nonzero"></path>
    </g>
</svg>