<?xml version="1.0" encoding="UTF-8"?>
<svg viewBox="0 0 68 54" version="1.1" xmlns="http://www.w3.org/2000/svg" xmlns:xlink="http://www.w3.org/1999/xlink">
    <g id="Page-1" stroke="none" stroke-width="1" fill="none" fill-rule="evenodd">
        <path d="M65.84,19.937 L36.511,19.937 C35.682,19.937 35.011,20.609 35.011,21.437 C35.011,22.265 35.683,22.937 36.511,22.937 L47.311,22.937 C47.092,23.476 46.977,24.066 47.018,24.685 C47.284,28.783 45.922,32.48 43.776,33.477 C41.94,34.331 39.09,33.083 35.951,30.069 C35.861,29.983 35.757,29.924 35.659,29.85 L35.659,39.803 C38.262,41.242 40.576,41.741 42.516,41.741 C44.461,41.743 46.034,41.252 47.149,40.731 C52.413,38.284 55.493,31.782 55.001,24.169 C54.972,23.731 54.856,23.324 54.7,22.939 L65.84,22.939 C66.668,22.939 67.34,22.267 67.34,21.439 C67.34,20.611 66.67,19.937 65.84,19.937 Z" id="Shape" fill="#000000" fill-rule="nonzero"></path>
        <circle id="Oval" fill="#000000" fill-rule="nonzero" cx="22.559" cy="10.79" r="10.211"></circle>
        <polygon id="Shape" fill="#000000" fill-rule="nonzero" points="21.436 24.281 18.889 22.811 18.889 25.752 18.889 28.691 21.436 27.222 22.915 26.367 24.398 27.224 26.944 28.691 26.944 25.752 26.944 22.811 24.398 24.281 22.917 25.137"></polygon>
        <path d="M8.191,53.998 C8.651,51.375 9.23,48.902 9.957,46.654 L9.957,30.246 C5.029,35.47 1.619,43.685 0,53.998 L8.191,53.998 Z" id="Shape" fill="#000000" fill-rule="nonzero"></path>
        <path d="M30.725,26.273 L27.604,31.002 L22.917,38.105 L18.229,31.002 L15.07,26.215 C14.887,26.315 14.707,26.418 14.526,26.526 C13.35,27.23 12.234,28.07 11.179,29.038 L11.179,54 L34.428,54 L34.428,42.996 C34.431,43 34.433,43.005 34.435,43.013 L34.435,39.073 L34.435,29.174 L34.435,28.956 C33.408,28.026 32.324,27.223 31.184,26.538 C31.031,26.445 30.877,26.359 30.725,26.273 Z M22.809,50.369 C22.19,50.369 21.686,49.866 21.686,49.246 C21.686,48.626 22.19,48.123 22.809,48.123 C23.43,48.123 23.932,48.626 23.932,49.246 C23.932,49.866 23.429,50.369 22.809,50.369 Z M22.809,44.367 C22.19,44.367 21.686,43.864 21.686,43.245 C21.686,42.624 22.19,42.122 22.809,42.122 C23.43,42.122 23.932,42.624 23.932,43.245 C23.931,43.864 23.429,44.367 22.809,44.367 Z" id="Shape" fill="#000000" fill-rule="nonzero"></path>
        <path d="M64.74,8.138 L64.742,8.131 L48.714,8.131 C47.749,5.451 45.184,3.528 42.175,3.528 C38.347,3.528 35.231,6.643 35.231,10.472 C35.232,14.301 38.347,17.416 42.176,17.415 C45.162,17.415 47.713,15.521 48.693,12.872 L51.316,12.872 L53.987,15.542 L56.357,13.172 L58.655,15.468 L61.302,12.822 L63.048,14.568 L67.12,10.506 L64.746,8.132 L64.74,8.138 Z M44.379,10.473 C44.379,11.687 43.392,12.675 42.177,12.676 C40.962,12.676 39.974,11.688 39.974,10.473 C39.974,9.258 40.962,8.269 42.176,8.27 C43.39,8.27 44.379,9.258 44.379,10.473 Z" id="Shape" fill="#000000" fill-rule="nonzero"></path>
    </g>
</svg>
