<?xml version="1.0" encoding="UTF-8"?>
<svg viewBox="0 0 62 60" version="1.1" xmlns="http://www.w3.org/2000/svg" xmlns:xlink="http://www.w3.org/1999/xlink">
    <g id="Page-1" stroke="none" stroke-width="1" fill="none" fill-rule="evenodd">
        <path d="M45.074219,0.39748 C44.398061,0.38748 44.398061,1.40704 45.074219,1.39748 L48.244141,1.39748 C48.920299,1.40748 48.920299,0.38792 48.244141,0.39748 L45.074219,0.39748 Z M49.873047,0.39748 C49.196889,0.38748 49.196889,1.40704 49.873047,1.39748 L58.919922,1.39748 C59.59608,1.40748 59.59608,0.38792 58.919922,0.39748 L49.873047,0.39748 Z M14.511719,0.85646 C14.381153,0.85846 14.256379,0.91056 14.164062,1.00295 C12.413305,2.75895 10.94288,3.57951 9.378906,3.79006 C7.8149327,4.00062 6.0923155,3.59296 3.876953,2.71779 C3.5489271,2.58835 3.1935758,2.82999 3.1933593,3.18263 C3.1968293,10.52154 3.4246766,15.74554 4.9374999,19.87984 C6.4224078,23.93784 9.188386,26.88374 14.017578,29.58104 L14.017578,39.24514 C14.017309,39.40844 14.096788,39.56144 14.230469,39.65524 L22.662109,45.53804 C21.940377,46.35264 21.488281,47.41224 21.488281,48.58294 L21.488281,54.42284 L6.5312499,54.42284 L6.5312499,36.27044 L7.4160155,36.27044 C8.193382,36.27044 8.8359374,35.62994 8.8359374,34.85254 L8.8359374,32.08694 C8.8359374,31.30964 8.193382,30.66694 7.4160155,30.66694 L4.6503905,30.66694 C3.873024,30.66694 3.2324218,31.30964 3.2324218,32.08694 L3.2324218,34.85254 C3.2324218,35.62994 3.873024,36.27044 4.6503905,36.27044 L5.5312499,36.27044 L5.5312499,54.92284 C5.5312775,55.19894 5.755119,55.42284 6.0312499,55.42284 L21.488281,55.42284 L21.488281,58.84864 C21.478681,59.52484 22.497844,59.52484 22.488281,58.84864 L22.488281,48.58294 C22.488281,46.57444 24.097512,44.96484 26.115234,44.97164 L26.117234,44.97164 L26.935593,44.97164 L30.775437,56.09274 C30.930533,56.54184 31.565653,56.54184 31.720749,56.09274 L35.560593,44.97164 L36.378952,44.97164 C38.39871,44.97164 40.007858,46.57444 40.007858,48.58294 L40.007858,58.84864 C39.998258,59.52484 41.017421,59.52484 41.007858,58.84864 L41.007858,55.42284 L56.15239,55.42284 C56.428521,55.42284 56.652362,55.19894 56.65239,54.92284 L56.65239,42.27044 L57.533249,42.27044 C58.310616,42.27044 58.951218,41.62994 58.951218,40.85254 L58.951218,38.08694 C58.951218,37.30964 58.310616,36.66694 57.533249,36.66694 L54.767624,36.66694 C53.990258,36.66694 53.349655,37.30964 53.349655,38.08694 L53.349655,40.85254 C53.349655,41.62994 53.990258,42.27044 54.767624,42.27044 L55.65239,42.27044 L55.65239,54.42284 L41.007858,54.42284 L41.007858,48.58294 C41.007858,47.31484 40.491792,46.16654 39.660202,45.33294 L48.007858,37.61224 C48.110083,37.51724 48.168134,37.38454 48.168015,37.24514 L48.168015,27.80364 L54.005905,27.80364 C54.937543,27.80364 55.703171,27.03804 55.703171,26.10644 L55.703171,17.32714 C55.703171,16.39544 54.937543,15.62984 54.005905,15.62984 L53.554734,15.62984 L53.554734,12.76074 C53.554734,9.59771 50.931022,7.04982 47.705124,7.04982 C44.479224,7.04982 41.853562,9.59771 41.853562,12.76074 L41.853562,15.62984 L41.40239,15.62984 C40.470752,15.62984 39.705124,16.39544 39.705124,17.32714 L39.705124,26.10644 C39.705124,27.03804 40.470752,27.80364 41.40239,27.80364 L47.168015,27.80364 L47.168015,37.02634 L38.869187,44.70604 C38.149014,44.24594 37.297229,43.97164 36.378952,43.97164 L35.203171,43.97164 C34.990156,43.97154 34.800441,44.10644 34.730515,44.30764 L33.724655,47.22164 L33.12114,45.31344 C33.43805,45.13004 33.714464,44.86254 33.937546,44.54784 C34.321346,44.00634 34.57782,43.32134 34.582077,42.61034 C36.440203,41.48334 37.689499,39.45384 37.689499,37.13184 C37.689499,33.76024 35.065652,30.99484 31.748093,30.73924 L31.748093,23.70794 L32.662155,23.70794 C33.439522,23.70794 34.082077,23.06744 34.082077,22.29004 L34.082077,19.52444 C34.082077,18.74714 33.439522,18.10444 32.662155,18.10444 L29.89653,18.10444 C29.119164,18.10444 28.478562,18.74714 28.478562,19.52444 L28.478562,22.29004 C28.478562,23.06744 29.119164,23.70794 29.89653,23.70794 L30.748093,23.70794 L30.748093,30.73924 C27.430535,30.99484 24.806687,33.76024 24.806687,37.13184 C24.806687,39.45324 26.054823,41.48314 27.912155,42.61034 C27.928025,43.38394 28.178529,44.08754 28.566452,44.62014 C28.785913,44.92144 29.060108,45.16664 29.369187,45.33294 L28.77153,47.22164 L27.765671,44.30764 C27.695741,44.10644 27.50603,43.97154 27.293015,43.97164 L26.119187,43.97164 L26.117187,43.97164 C25.106926,43.97164 24.17924,44.29864 23.417968,44.84664 L15.017577,38.98334 L15.017577,29.58494 C19.848873,26.88694 22.614473,23.93974 24.099608,19.87794 C25.612163,15.74124 25.838839,10.51174 25.841796,3.1631 C25.842128,2.80923 25.484869,2.56699 25.156249,2.69826 C22.941697,3.58296 21.219394,3.99633 19.656249,3.7881 C18.093104,3.57987 16.622592,2.75889 14.873046,1.00295 C14.777386,0.90725 14.647019,0.85439 14.511718,0.85646 L14.511719,0.85646 Z M14.519519,1.99123 C16.220465,3.60905 17.818767,4.55294 19.525379,4.78029 C21.14905,4.99658 22.867416,4.57405 24.8203,3.85256 C24.80891,7.5476 24.72231,10.68324 24.439441,13.39154 C24.092887,13.41554 23.818709,13.69564 23.824207,14.04584 L23.824207,14.06184 C23.824207,14.41194 24.038165,14.61354 24.291004,14.68094 C24.041893,16.49954 23.681864,18.10764 23.160144,19.53444 C21.75722,23.37134 19.21923,26.08494 14.519519,28.70824 C9.818884,26.08484 7.2781205,23.37104 5.8749879,19.53644 C5.3502698,18.10244 4.9893976,16.48494 4.7402223,14.65554 C4.9548873,14.56754 5.1249879,14.37284 5.1249879,14.06184 L5.1249879,14.04584 C5.1300179,13.72614 4.8986452,13.47114 4.5976441,13.41114 C4.3138099,10.70254 4.2264743,7.56634 4.2148317,3.87013 C6.1686878,4.58407 7.8877593,5.00087 9.511707,4.78224 C11.21854,4.55245 12.817098,3.60981 14.519519,1.99123 L14.519519,1.99123 Z M49.033191,2.39748 C48.357033,2.38748 48.357033,3.40704 49.033191,3.39748 L55.189441,3.39748 C55.865599,3.40748 55.865599,2.38792 55.189441,2.39748 L49.033191,2.39748 Z M56.791004,2.39748 C56.114846,2.38748 56.114846,3.40704 56.791004,3.39748 L59.353504,3.39748 C60.029662,3.40748 60.029662,2.38792 59.353504,2.39748 L56.791004,2.39748 Z M14.464832,3.38576 C14.105539,3.39076 13.818595,3.68663 13.824207,4.04592 L13.824207,4.06152 C13.824207,4.92871 15.124988,4.92871 15.124988,4.06152 L15.124988,4.04592 C15.130688,3.67898 14.831776,3.38002 14.464832,3.38576 Z M30.279285,4.32326 C29.831267,4.3234 29.609491,4.86731 29.929676,5.18068 L31.742176,6.99318 C32.213428,7.48405 32.940077,6.7574 32.449207,6.28615 L30.636707,4.47365 C30.542647,4.37745 30.413804,4.32327 30.279285,4.32326 Z M36.328113,4.32326 C36.198353,4.32726 36.075083,4.38076 35.984363,4.47365 L34.171863,6.28615 C33.680993,6.7574 34.407641,7.48405 34.878894,6.99318 L36.691394,5.18263 C37.020233,4.86482 36.785194,4.30883 36.328113,4.32326 Z M12.464832,5.38576 C12.105539,5.39076 11.818595,5.68663 11.824207,6.04592 L11.824207,6.06152 C11.824207,6.92871 13.124988,6.92871 13.124988,6.06152 L13.124988,6.04592 C13.130688,5.67898 12.831776,5.38002 12.464832,5.38576 Z M16.464832,5.38576 C16.105539,5.39076 15.818595,5.68663 15.824207,6.04592 L15.824207,6.06152 C15.824207,6.92871 17.124988,6.92871 17.124988,6.06152 L17.124988,6.04592 C17.130688,5.67898 16.831776,5.38002 16.464832,5.38576 Z M14.464832,5.74513 C14.106311,5.75013 13.819683,6.04481 13.824207,6.40334 L13.824207,6.42094 C13.824207,7.28813 15.124988,7.28813 15.124988,6.42094 L15.124988,6.40334 C15.129588,6.03716 14.830999,5.73942 14.464832,5.74513 Z M10.464832,7.38576 C10.105539,7.39076 9.818595,7.68663 9.824207,8.04592 L9.824207,8.06152 C9.824207,8.92871 11.124988,8.92871 11.124988,8.06152 L11.124988,8.04592 C11.130688,7.67898 10.831776,7.38002 10.464832,7.38576 Z M18.464832,7.38576 C18.105539,7.39076 17.818595,7.68663 17.824207,8.04592 L17.824207,8.06152 C17.824207,8.92871 19.124988,8.92871 19.124988,8.06152 L19.124988,8.04592 C19.130688,7.67898 18.831776,7.38002 18.464832,7.38576 Z M12.464832,7.74513 C12.106311,7.75013 11.819683,8.04481 11.824207,8.40334 L11.824207,8.42094 C11.824207,9.28813 13.124988,9.28813 13.124988,8.42094 L13.124988,8.40334 C13.129588,8.03716 12.830999,7.73942 12.464832,7.74513 Z M16.464832,7.74513 C16.106311,7.75013 15.819683,8.04481 15.824207,8.40334 L15.824207,8.42094 C15.824207,9.28813 17.124988,9.28813 17.124988,8.42094 L17.124988,8.40334 C17.129588,8.03716 16.830999,7.73942 16.464832,7.74513 Z M47.705066,8.04982 C50.408204,8.04982 52.554675,10.14864 52.554676,12.76074 L52.554676,15.62984 L51.416004,15.62984 L51.416004,12.87984 C51.416004,10.89524 49.741144,9.30177 47.705066,9.30177 C45.668986,9.30177 43.992175,10.89524 43.992176,12.87984 L43.992176,15.62984 L42.853504,15.62984 L42.853504,12.76074 C42.853504,10.14864 45.001926,8.04982 47.705066,8.04982 Z M14.464832,8.10452 C14.106311,8.10952 13.819683,8.40419 13.824207,8.76272 L13.824207,8.78032 C13.824207,9.64754 15.124988,9.64754 15.124988,8.78032 L15.124988,8.76272 C15.129588,8.39654 14.830999,8.09881 14.464832,8.10452 Z M32.085926,8.56546 C31.955885,8.56946 31.832576,8.62426 31.742176,8.7178 L29.929676,10.52844 C29.456879,10.99984 30.16404,11.70884 30.636707,11.23734 L32.449207,9.42483 C32.778064,9.10702 32.543027,8.55102 32.085926,8.56546 Z M34.521472,8.56546 C34.072064,8.56555 33.850877,9.1123 34.173816,9.42483 L35.984363,11.23734 C36.455585,11.72924 37.183232,11.00154 36.691394,10.53034 L34.880847,8.7178 C34.786637,8.6204 34.656956,8.56546 34.521472,8.56546 Z M58.785144,8.9385 C57.702529,8.9385 56.814441,9.82664 56.814441,10.90924 C56.814441,11.99184 57.702529,12.87994 58.785144,12.87994 C59.867759,12.87994 60.755847,11.99184 60.755847,10.90924 C60.755847,9.82664 59.867759,8.9385 58.785144,8.9385 Z M8.4648317,9.38577 C8.1055387,9.39077 7.8185947,9.68664 7.8242067,10.04594 L7.8242067,10.06194 C7.8242067,10.92914 9.124988,10.92914 9.124988,10.06194 L9.124988,10.04594 C9.130688,9.67904 8.8317754,9.38003 8.4648317,9.38577 Z M20.464832,9.38577 C20.105539,9.39077 19.818595,9.68664 19.824207,10.04594 L19.824207,10.06194 C19.824207,10.92914 21.124988,10.92914 21.124988,10.06194 L21.124988,10.04594 C21.130688,9.67904 20.831776,9.38003 20.464832,9.38577 Z M10.464832,9.74524 C10.106311,9.75524 9.819683,10.04494 9.824207,10.40344 L9.824207,10.42144 C9.824207,11.28864 11.124988,11.28864 11.124988,10.42144 L11.124988,10.40344 C11.129588,10.03724 10.830999,9.73954 10.464832,9.74524 Z M18.464832,9.74524 C18.106311,9.75524 17.819683,10.04494 17.824207,10.40344 L17.824207,10.42144 C17.824207,11.28864 19.124988,11.28864 19.124988,10.42144 L19.124988,10.40344 C19.129588,10.03724 18.830999,9.73954 18.464832,9.74524 Z M58.785144,9.93854 C59.327319,9.93854 59.755847,10.36704 59.755847,10.90924 C59.755847,11.45144 59.327319,11.87994 58.785144,11.87994 C58.24297,11.87994 57.814441,11.45144 57.814441,10.90924 C57.814441,10.36704 58.24297,9.93854 58.785144,9.93854 Z M12.464832,10.10454 C12.106311,10.11454 11.819683,10.40424 11.824207,10.76274 L11.824207,10.77874 C11.824207,11.64594 13.124988,11.64594 13.124988,10.77874 L13.124988,10.76274 C13.129588,10.39654 12.830999,10.09884 12.464832,10.10454 Z M16.464832,10.10454 C16.106311,10.11454 15.819683,10.40424 15.824207,10.76274 L15.824207,10.77874 C15.824207,11.64594 17.124988,11.64594 17.124988,10.77874 L17.124988,10.76274 C17.129588,10.39654 16.830999,10.09884 16.464832,10.10454 Z M47.705066,10.30184 C49.226956,10.30184 50.416004,11.45554 50.416004,12.87994 L50.416004,15.62994 L44.992176,15.62994 L44.992176,12.87994 C44.992176,11.45554 46.183174,10.30184 47.705066,10.30184 Z M14.464832,10.46204 C14.105519,10.47204 13.818567,10.76284 13.824207,11.12214 L13.824207,11.13814 C13.824207,12.00534 15.124988,12.00534 15.124988,11.13814 L15.124988,11.12214 C15.130788,10.75514 14.831796,10.45634 14.464832,10.46204 Z M6.4648317,11.38584 C6.1055189,11.39584 5.8185668,11.68664 5.8242067,12.04594 L5.8242067,12.06194 C5.8242067,12.92914 7.1249879,12.92914 7.1249879,12.06194 L7.1249879,12.04594 C7.1307579,11.67894 6.8317953,11.38014 6.4648317,11.38584 L6.4648317,11.38584 Z M22.464832,11.38584 C22.105519,11.39584 21.818567,11.68664 21.824207,12.04594 L21.824207,12.06194 C21.824207,12.92914 23.124988,12.92914 23.124988,12.06194 L23.124988,12.04594 C23.130788,11.67894 22.831796,11.38014 22.464832,11.38584 Z M8.4648317,11.74524 C8.106311,11.75524 7.8196823,12.04494 7.8242067,12.40344 L7.8242067,12.42144 C7.8242067,13.28864 9.124988,13.28864 9.124988,12.42144 L9.124988,12.40344 C9.129588,12.03724 8.8309983,11.73954 8.4648317,11.74524 Z M20.464832,11.74524 C20.106311,11.75524 19.819683,12.04494 19.824207,12.40344 L19.824207,12.42144 C19.824207,13.28864 21.124988,13.28864 21.124988,12.42144 L21.124988,12.40344 C21.129588,12.03724 20.830999,11.73954 20.464832,11.74524 Z M10.464832,12.10454 C10.106311,12.11454 9.819683,12.40424 9.824207,12.76274 L9.824207,12.77874 C9.824207,13.64594 11.124988,13.64594 11.124988,12.77874 L11.124988,12.76274 C11.129588,12.39654 10.830999,12.09884 10.464832,12.10454 Z M18.464832,12.10454 C18.106311,12.11454 17.819683,12.40424 17.824207,12.76274 L17.824207,12.77874 C17.824207,13.64594 19.124988,13.64594 19.124988,12.77874 L19.124988,12.76274 C19.129588,12.39654 18.830999,12.09884 18.464832,12.10454 Z M12.464832,12.46204 C12.105519,12.47204 11.818567,12.76284 11.824207,13.12214 L11.824207,13.13814 C11.824207,14.00534 13.124988,14.00534 13.124988,13.13814 L13.124988,13.12214 C13.130788,12.75514 12.831796,12.45634 12.464832,12.46204 Z M16.464832,12.46204 C16.105519,12.47204 15.818567,12.76284 15.824207,13.12214 L15.824207,13.13814 C15.824207,14.00534 17.124988,14.00534 17.124988,13.13814 L17.124988,13.12214 C17.130788,12.75514 16.831796,12.45634 16.464832,12.46204 Z M14.464832,12.82134 C14.105519,12.83134 13.818567,13.12224 13.824207,13.48154 L13.824207,13.49754 C13.824207,14.36474 15.124988,14.36474 15.124988,13.49754 L15.124988,13.48154 C15.130788,13.11454 14.831796,12.81564 14.464832,12.82134 Z M6.4648317,13.74524 C6.106311,13.75524 5.8196822,14.04494 5.8242067,14.40344 L5.8242067,14.42144 C5.8242067,15.28864 7.1249879,15.28864 7.1249879,14.42144 L7.1249879,14.40344 C7.1296179,14.03724 6.8309984,13.73954 6.4648317,13.74524 L6.4648317,13.74524 Z M22.464832,13.74524 C22.106311,13.75524 21.819683,14.04494 21.824207,14.40344 L21.824207,14.42144 C21.824207,15.28864 23.124988,15.28864 23.124988,14.42144 L23.124988,14.40344 C23.129588,14.03724 22.830999,13.73954 22.464832,13.74524 Z M8.4648317,14.10454 C8.106311,14.11454 7.8196823,14.40424 7.8242067,14.76274 L7.8242067,14.77874 C7.8242067,15.64594 9.124988,15.64594 9.124988,14.77874 L9.124988,14.76274 C9.129588,14.39654 8.8309983,14.09884 8.4648317,14.10454 Z M20.464832,14.10454 C20.106311,14.11454 19.819683,14.40424 19.824207,14.76274 L19.824207,14.77874 C19.824207,15.64594 21.124988,15.64594 21.124988,14.77874 L21.124988,14.76274 C21.129588,14.39654 20.830999,14.09884 20.464832,14.10454 Z M10.464832,14.46204 C10.105519,14.47204 9.818567,14.76284 9.824207,15.12214 L9.824207,15.13814 C9.824207,16.00534 11.124988,16.00534 11.124988,15.13814 L11.124988,15.12214 C11.130788,14.75514 10.831796,14.45634 10.464832,14.46204 Z M18.464832,14.46204 C18.105519,14.47204 17.818567,14.76284 17.824207,15.12214 L17.824207,15.13814 C17.824207,16.00534 19.124988,16.00534 19.124988,15.13814 L19.124988,15.12214 C19.130788,14.75514 18.831796,14.45634 18.464832,14.46204 Z M12.464832,14.82134 C12.105519,14.83134 11.818567,15.12224 11.824207,15.48154 L11.824207,15.49754 C11.824207,16.36474 13.124988,16.36474 13.124988,15.49754 L13.124988,15.48154 C13.130788,15.11454 12.831796,14.81564 12.464832,14.82134 Z M16.464832,14.82134 C16.105519,14.83134 15.818567,15.12224 15.824207,15.48154 L15.824207,15.49754 C15.824207,16.36474 17.124988,16.36474 17.124988,15.49754 L17.124988,15.48154 C17.130788,15.11454 16.831796,14.81564 16.464832,14.82134 Z M14.464832,15.18074 C14.106311,15.19074 13.819683,15.48044 13.824207,15.83894 L13.824207,15.85694 C13.824207,16.72414 15.124988,16.72414 15.124988,15.85694 L15.124988,15.83894 C15.129588,15.47274 14.830999,15.17504 14.464832,15.18074 Z M41.402332,16.62994 L54.005847,16.62994 C54.40075,16.62994 54.703113,16.93224 54.703113,17.32724 L54.703113,26.10654 C54.703113,26.50144 54.40075,26.80374 54.005847,26.80374 L41.402332,26.80374 C41.007429,26.80374 40.705066,26.50144 40.705066,26.10654 L40.705066,17.32724 C40.705066,16.93224 41.007429,16.62994 41.402332,16.62994 Z M10.464832,16.82134 C10.105519,16.83134 9.818567,17.12224 9.824207,17.48154 L9.824207,17.49754 C9.824207,18.36474 11.124988,18.36474 11.124988,17.49754 L11.124988,17.48154 C11.130788,17.11454 10.831796,16.81564 10.464832,16.82134 Z M18.464832,16.82134 C18.105519,16.83134 17.818567,17.12224 17.824207,17.48154 L17.824207,17.49754 C17.824207,18.36474 19.124988,18.36474 19.124988,17.49754 L19.124988,17.48154 C19.130788,17.11454 18.831796,16.81564 18.464832,16.82134 Z M12.464832,17.18074 C12.106311,17.19074 11.819683,17.48044 11.824207,17.83894 L11.824207,17.85694 C11.824207,18.72414 13.124988,18.72414 13.124988,17.85694 L13.124988,17.83894 C13.129588,17.47274 12.830999,17.17504 12.464832,17.18074 Z M16.464832,17.18074 C16.106311,17.19074 15.819683,17.48044 15.824207,17.83894 L15.824207,17.85694 C15.824207,18.72414 17.124988,18.72414 17.124988,17.85694 L17.124988,17.83894 C17.129588,17.47274 16.830999,17.17504 16.464832,17.18074 Z M14.464832,17.54014 C14.106311,17.55014 13.819683,17.83984 13.824207,18.19834 L13.824207,18.21434 C13.824207,19.08154 15.124988,19.08154 15.124988,18.21434 L15.124988,18.19834 C15.129588,17.83214 14.830999,17.53444 14.464832,17.54014 Z M47.705066,17.76664 C46.442615,17.76664 45.390552,18.76824 45.390613,20.01474 C45.390897,20.71344 45.774601,21.31534 46.324207,21.73544 L46.324207,24.31354 C46.324207,25.06194 46.958066,25.66514 47.705066,25.66514 C48.452066,25.66514 49.083972,25.06194 49.083972,24.31354 L49.083972,21.73544 C49.63349,21.31564 50.016828,20.71314 50.017566,20.01474 C50.017627,18.76824 48.967515,17.76664 47.705066,17.76664 Z M47.705066,18.76664 C48.446267,18.76664 49.017599,19.32854 49.017566,20.01474 C49.017093,20.46254 48.767257,20.87814 48.347644,21.10264 C48.185049,21.18964 48.083697,21.35954 48.083972,21.54404 L48.083972,24.31554 C48.083972,24.50844 47.933704,24.66704 47.705066,24.66704 C47.476428,24.66704 47.324207,24.50844 47.324207,24.31554 L47.324207,21.54404 C47.323746,21.36024 47.222498,21.19144 47.060535,21.10454 C46.640646,20.87984 46.390795,20.46274 46.390613,20.01474 C46.39058,19.32854 46.963862,18.76664 47.705066,18.76664 L47.705066,18.76664 Z M29.896472,19.10454 L32.662097,19.10454 C32.902719,19.10454 33.082019,19.28394 33.082019,19.52454 L33.082019,22.29014 C33.082019,22.53084 32.902719,22.70804 32.662097,22.70804 L29.896472,22.70804 C29.655851,22.70804 29.478504,22.53084 29.478504,22.29014 L29.478504,19.52454 C29.478504,19.28394 29.655851,19.10454 29.896472,19.10454 Z M10.464832,19.18054 C10.106311,19.19054 9.819683,19.48024 9.824207,19.83874 L9.824207,19.85674 C9.824207,20.72394 11.124988,20.72394 11.124988,19.85674 L11.124988,19.83874 C11.129588,19.47254 10.830999,19.17484 10.464832,19.18054 Z M18.464832,19.18054 C18.106311,19.19054 17.819683,19.48024 17.824207,19.83874 L17.824207,19.85674 C17.824207,20.72394 19.124988,20.72394 19.124988,19.85674 L19.124988,19.83874 C19.129588,19.47254 18.830999,19.17484 18.464832,19.18054 Z M12.464832,19.53994 C12.106311,19.54994 11.819683,19.83964 11.824207,20.19814 L11.824207,20.21414 C11.824207,21.08134 13.124988,21.08134 13.124988,20.21414 L13.124988,20.19814 C13.129588,19.83194 12.830999,19.53424 12.464832,19.53994 Z M16.464832,19.53994 C16.106311,19.54994 15.819683,19.83964 15.824207,20.19814 L15.824207,20.21414 C15.824207,21.08134 17.124988,21.08134 17.124988,20.21414 L17.124988,20.19814 C17.129588,19.83194 16.830999,19.53424 16.464832,19.53994 Z M14.464832,19.89734 C14.105559,19.90734 13.818623,20.19824 13.824207,20.55754 L13.824207,20.57354 C13.824207,21.44074 15.124988,21.44074 15.124988,20.57354 L15.124988,20.55754 C15.130688,20.19064 14.831756,19.89164 14.464832,19.89734 Z M10.464832,21.53994 C10.106311,21.54994 9.819683,21.83964 9.824207,22.19814 L9.824207,22.21414 C9.824207,23.08134 11.124988,23.08134 11.124988,22.21414 L11.124988,22.19814 C11.129588,21.83194 10.830999,21.53424 10.464832,21.53994 Z M18.464832,21.53994 C18.106311,21.54994 17.819683,21.83964 17.824207,22.19814 L17.824207,22.21414 C17.824207,23.08134 19.124988,23.08134 19.124988,22.21414 L19.124988,22.19814 C19.129588,21.83194 18.830999,21.53424 18.464832,21.53994 Z M59.562488,21.85044 C59.2871,21.85044 59.067044,22.08094 59.0703,22.35634 L59.0703,27.42074 C59.0607,28.09694 60.079864,28.09694 60.0703,27.42074 L60.0703,22.35634 C60.0736,22.07484 59.843992,21.84604 59.562488,21.85044 Z M12.464832,21.89744 C12.105559,21.90744 11.818623,22.19834 11.824207,22.55764 L11.824207,22.57364 C11.824207,23.44084 13.124988,23.44084 13.124988,22.57364 L13.124988,22.55764 C13.130688,22.19074 12.831756,21.89174 12.464832,21.89744 Z M16.464832,21.89744 C16.105559,21.90744 15.818623,22.19834 15.824207,22.55764 L15.824207,22.57364 C15.824207,23.44084 17.124988,23.44084 17.124988,22.57364 L17.124988,22.55764 C17.130688,22.19074 16.831756,21.89174 16.464832,21.89744 Z M14.464832,22.25684 C14.105519,22.26684 13.818567,22.55764 13.824207,22.91694 L13.824207,22.93294 C13.824207,23.80014 15.124988,23.80014 15.124988,22.93294 L15.124988,22.91694 C15.130788,22.54994 14.831796,22.25114 14.464832,22.25684 Z M2.8495973,23.41504 C1.7669824,23.41504 0.8788941,24.30314 0.8788941,25.38574 C0.8788941,26.46844 1.7669824,27.35644 2.8495973,27.35644 C3.9322121,27.35644 4.8203004,26.46844 4.8203004,25.38574 C4.8203004,24.30314 3.9322121,23.41504 2.8495973,23.41504 Z M10.464832,23.89744 C10.105559,23.90744 9.818623,24.19834 9.824207,24.55764 L9.824207,24.57364 C9.824207,25.44084 11.124988,25.44084 11.124988,24.57364 L11.124988,24.55764 C11.130688,24.19074 10.831756,23.89174 10.464832,23.89744 Z M18.464832,23.89744 C18.105559,23.90744 17.818623,24.19834 17.824207,24.55764 L17.824207,24.57364 C17.824207,25.44084 19.124988,25.44084 19.124988,24.57364 L19.124988,24.55764 C19.130688,24.19074 18.831756,23.89174 18.464832,23.89744 Z M12.464832,24.25684 C12.105519,24.26684 11.818567,24.55764 11.824207,24.91694 L11.824207,24.93294 C11.824207,25.80014 13.124988,25.80014 13.124988,24.93294 L13.124988,24.91694 C13.130788,24.54994 12.831796,24.25114 12.464832,24.25684 Z M16.464832,24.25684 C16.105519,24.26684 15.818567,24.55764 15.824207,24.91694 L15.824207,24.93294 C15.824207,25.80014 17.124988,25.80014 17.124988,24.93294 L17.124988,24.91694 C17.130788,24.54994 16.831796,24.25114 16.464832,24.25684 Z M2.8495973,24.41504 C3.391772,24.41504 3.8203004,24.84364 3.8203004,25.38574 C3.8203004,25.92794 3.391772,26.35634 2.8495973,26.35644 C2.3074226,26.35644 1.8788942,25.92794 1.8788941,25.38574 C1.8788941,24.84364 2.3074226,24.41504 2.8495973,24.41504 L2.8495973,24.41504 Z M14.464832,24.61614 C14.106311,24.62614 13.819683,24.91594 13.824207,25.27444 L13.824207,25.29044 C13.824207,26.15764 15.124988,26.15764 15.124988,25.29044 L15.124988,25.27444 C15.129588,24.90824 14.830999,24.61044 14.464832,24.61614 Z M59.562488,28.40914 C59.286348,28.40914 59.065986,28.64084 59.0703,28.91694 L59.0703,30.66304 C59.0607,31.33924 60.079861,31.33924 60.0703,30.66304 L60.0703,28.91694 C60.0747,28.63464 59.844749,28.40474 59.562488,28.40914 Z M4.6503785,31.66694 L7.4160035,31.66694 C7.656625,31.66694 7.8359254,31.84634 7.8359254,32.08694 L7.8359254,34.85254 C7.8359254,35.09324 7.656625,35.27044 7.4160035,35.27044 L4.6503785,35.27044 C4.409757,35.27044 4.2324098,35.09324 4.2324098,34.85254 L4.2324098,32.08694 C4.2324098,31.84634 4.409757,31.66694 4.6503785,31.66694 L4.6503785,31.66694 Z M31.248035,31.71394 C34.26032,31.71394 36.689441,34.13494 36.689441,37.13194 C36.689441,40.12924 34.26034,42.54984 31.248035,42.54984 C28.235731,42.54984 25.806629,40.12924 25.806629,37.13194 C25.806629,34.13494 28.235751,31.71394 31.248035,31.71394 L31.248035,31.71394 Z M54.767566,37.66704 L57.533191,37.66704 C57.773813,37.66704 57.95116,37.84644 57.95116,38.08704 L57.95116,40.85264 C57.95116,41.09334 57.773813,41.27054 57.533191,41.27054 L54.767566,41.27054 C54.526945,41.27054 54.349597,41.09334 54.349597,40.85264 L54.349597,38.08704 C54.349597,37.84644 54.526945,37.66704 54.767566,37.66704 Z M47.521472,42.70804 C47.246084,42.70804 47.026029,42.93854 47.029285,43.21394 L47.029285,48.27844 C47.019685,48.95464 48.038848,48.95464 48.029285,48.27844 L48.029285,43.21394 C48.032585,42.93244 47.802977,42.70364 47.521472,42.70804 Z M49.521472,42.70804 C49.246084,42.70804 49.026029,42.93854 49.029285,43.21394 L49.029285,44.96004 C49.019685,45.63624 50.038845,45.63624 50.029285,44.96004 L50.029285,43.21394 C50.032585,42.93244 49.802977,42.70364 49.521472,42.70804 Z M28.984363,43.13194 C29.690068,43.39724 30.450458,43.54984 31.248035,43.54984 C32.04191,43.54984 32.79897,43.39884 33.501941,43.13584 C33.421881,43.43554 33.289936,43.73164 33.121082,43.96984 C32.848917,44.35384 32.509992,44.54564 32.341785,44.54794 L30.148426,44.54794 C29.938767,44.54794 29.632372,44.38634 29.373035,44.03034 C29.200784,43.79384 29.063485,43.48004 28.984363,43.13194 Z M9.849597,44.69634 C9.400165,44.69644 9.178966,45.24324 9.501941,45.55574 L11.314441,47.36824 C11.785766,47.85664 12.509874,47.13254 12.021472,46.66124 L10.208972,44.84874 C10.114762,44.75174 9.985074,44.69634 9.849597,44.69634 Z M15.900379,44.69634 C15.770346,44.69634 15.647038,44.75534 15.556629,44.84874 L13.744129,46.65924 C13.252291,47.13044 13.979938,47.85814 14.45116,47.36624 L16.26366,45.55574 C16.592554,45.23794 16.3575,44.68184 15.900379,44.69634 Z M30.349597,45.54794 L32.146472,45.54794 L33.177722,48.80574 L31.248035,54.39754 L29.318347,48.80574 L30.349597,45.54794 Z M49.521472,45.95024 C49.246084,45.95024 49.026029,46.18074 49.029285,46.45614 L49.029285,51.52054 C49.019685,52.19674 50.038848,52.19674 50.029285,51.52054 L50.029285,46.45614 C50.032585,46.17464 49.802977,45.94584 49.521472,45.95024 Z M2.7089723,48.33504 C2.4328323,48.33504 2.2124709,48.56674 2.2167848,48.84284 L2.2167848,53.90534 C2.2072248,54.58154 3.2263474,54.58154 3.2167848,53.90534 L3.2167848,48.84284 C3.2211948,48.56054 2.9912337,48.33064 2.7089723,48.33504 Z M11.658191,48.93854 C11.528158,48.93854 11.40485,48.99754 11.314441,49.09094 L9.501941,50.90344 C9.013539,51.37474 9.737647,52.09884 10.208972,51.61044 L12.021472,49.79794 C12.350366,49.48014 12.115312,48.92404 11.658191,48.93854 Z M14.093738,48.93854 C13.643357,48.93854 13.420467,49.48474 13.744129,49.79794 L15.556629,51.61044 C16.027954,52.09884 16.752062,51.37474 16.26366,50.90344 L14.45116,49.09094 C14.35742,48.99394 14.228537,48.93904 14.093738,48.93854 L14.093738,48.93854 Z M47.521472,49.26664 C47.245332,49.26664 47.024971,49.49844 47.029285,49.77454 L47.029285,51.52054 C47.019685,52.19674 48.038845,52.19674 48.029285,51.52054 L48.029285,49.77454 C48.033685,49.49224 47.803734,49.26224 47.521472,49.26664 Z M2.7089723,54.89554 C2.4335842,54.89554 2.2135289,55.12604 2.2167848,55.40144 L2.2167848,57.14754 C2.2072248,57.82374 3.2263445,57.82374 3.2167848,57.14754 L3.2167848,55.40144 C3.2201148,55.11994 2.990477,54.89114 2.7089723,54.89554 Z M59.150379,55.66124 C58.067764,55.66124 57.179675,56.54934 57.179676,57.63194 C57.179676,58.71464 58.067764,59.60264 59.150379,59.60264 C60.232993,59.60264 61.121082,58.71464 61.121082,57.63194 C61.121082,56.54934 60.232993,55.66124 59.150379,55.66124 Z M59.150379,56.66124 C59.692553,56.66124 60.121082,57.08984 60.121082,57.63194 C60.121082,58.17414 59.692553,58.60264 59.150379,58.60264 C58.608204,58.60264 58.179674,58.17414 58.179676,57.63194 C58.179676,57.08984 58.608204,56.66124 59.150379,56.66124 Z" id="Shape" fill="#000000"></path>
    </g>
</svg>
