<?xml version="1.0" encoding="UTF-8"?>
<svg width="113px" height="262px" viewBox="0 0 113 262" version="1.1" xmlns="http://www.w3.org/2000/svg" xmlns:xlink="http://www.w3.org/1999/xlink" xmlns:sketch="http://www.bohemiancoding.com/sketch/ns">
    <!-- Generator: Sketch 3.4.2 (15855) - http://www.bohemiancoding.com/sketch -->
    <title>Slice 1</title>
    <desc>Created with Sketch.</desc>
    <defs></defs>
    <g id="Page-1" stroke="none" stroke-width="1" fill="none" fill-rule="evenodd" sketch:type="MSPage">
        <path d="M10.993,81.201 C15.581,84.409 20.726,86.671 25.344,88.299 C26.716,88.778 28.028,89.188 29.28,89.543 L29.28,249.066 C29.28,255.896 34.817,261.429 41.643,261.429 C48.471,261.429 54.008,255.896 54.008,249.066 L54.008,158.795 L58.643,158.795 L58.643,249.066 C58.643,255.896 64.18,261.429 71.006,261.429 C77.834,261.429 83.371,255.896 83.371,249.066 L83.371,99.107 C83.964,100.323 84.563,101.718 85.153,103.346 C87.971,111.157 90.341,123.976 90.332,143.984 C90.332,149.499 90.155,155.556 89.768,162.209 C89.509,166.617 92.877,170.403 97.288,170.66 C97.447,170.67 97.606,170.674 97.764,170.675 C101.968,170.675 105.493,167.393 105.742,163.141 C106.146,156.204 106.333,149.84 106.333,143.984 C106.292,113.8 101.472,97.095 94.898,87.053 C91.612,82.066 87.771,78.869 84.221,77.098 C80.865,75.407 77.913,75.003 76.099,74.968 C75.947,74.958 75.797,74.945 75.642,74.945 L37.075,74.945 C36.327,74.835 34.424,74.435 32.378,73.777 C28.628,72.62 23.891,70.611 20.697,68.46 C19.098,67.403 17.919,66.314 17.391,65.609 C17.238,65.411 17.136,65.25 17.072,65.135 C17.21,64.892 17.526,64.428 18.191,63.782 C20.112,61.793 25.024,58.811 33.48,55.582 C32.416,52.839 31.825,49.86 31.825,46.746 C31.825,43.929 32.309,41.225 33.188,38.703 C24.372,41.666 17.755,44.666 12.719,47.884 C9.259,50.118 6.493,52.482 4.4,55.324 C2.314,58.126 0.979,61.619 1,65.136 C0.993,67.952 1.814,70.572 2.976,72.708 C5.048,76.469 7.956,79.033 10.993,81.201 L10.993,81.201 Z" id="Shape" fill="#000000" sketch:type="MSShapeGroup"></path>
        <circle id="Oval" fill="#000000" sketch:type="MSShapeGroup" cx="56.325" cy="46.746" r="22.5"></circle>
        <path d="M89.852,33.033 C90.705,33.206 91.69,33.075 92.807,32.644 C93.925,32.21 94.575,31.555 94.752,30.673 C94.981,29.549 94.456,28.814 93.18,28.464 C92.581,27.839 92.056,27.481 91.6,27.388 C90.946,27.255 90.402,27.3 89.972,27.523 C89.822,27.611 89.624,27.705 89.385,27.802 C88.085,28.355 87.372,28.956 87.237,29.612 C87.077,30.409 87.248,31.132 87.752,31.783 C88.254,32.433 88.956,32.85 89.852,33.033 L89.852,33.033 Z" id="Shape" fill="#000000" sketch:type="MSShapeGroup"></path>
        <path d="M92.455,24.273 C93.677,24.521 94.582,24.521 95.167,24.269 C95.752,24.018 96.189,23.537 96.483,22.826 C97.05,21.489 97.629,20.363 98.215,19.445 C102.037,18.933 104.572,18.527 105.817,18.224 C107.064,17.923 108.251,17.186 109.379,16.016 C110.506,14.845 111.283,13.2 111.715,11.08 L111.719,11.059 C112.082,9.132 112.14,7.677 111.896,6.695 C111.652,5.713 110.86,4.545 109.521,3.192 C108.715,2.345 107.508,1.797 105.9,1.543 C105.069,1.404 104.24,1.258 103.412,1.103 C102.225,0.892 101.033,1.005 99.832,1.442 L99.854,1.445 C98.448,1.873 97.231,2.488 96.2,3.292 C95.17,4.098 94.578,4.879 94.424,5.631 C94.169,6.884 94.696,7.642 96.007,7.908 C98.011,8.316 99.236,7.906 99.677,6.677 C99.824,6.323 100.212,6.008 100.837,5.736 C101.461,5.464 102.543,5.482 104.079,5.795 C104.605,5.902 105.116,6.094 105.607,6.371 C106.098,6.65 106.417,6.91 106.559,7.154 C106.703,7.398 106.799,7.957 106.852,8.825 C106.905,9.694 106.883,10.372 106.785,10.854 C106.645,11.539 106.335,12.193 105.852,12.82 C105.368,13.447 104.856,13.818 104.314,13.931 L101.204,14.476 C99.239,14.816 97.897,15.091 97.181,15.3 C96.463,15.511 95.647,15.864 94.732,16.359 C93.505,17.947 92.73,19.007 92.409,19.542 C92.084,20.076 91.854,20.678 91.719,21.348 C91.591,21.972 91.583,22.596 91.695,23.219 C91.801,23.84 92.057,24.193 92.455,24.273 L92.455,24.273 Z" id="Shape" fill="#000000" sketch:type="MSShapeGroup"></path>
    </g>
</svg>