<?xml version="1.0" encoding="UTF-8"?>
<svg width="73px" height="87px" viewBox="0 0 73 87" version="1.1" xmlns="http://www.w3.org/2000/svg" xmlns:xlink="http://www.w3.org/1999/xlink" xmlns:sketch="http://www.bohemiancoding.com/sketch/ns">
    <!-- Generator: Sketch 3.4.2 (15855) - http://www.bohemiancoding.com/sketch -->
    <title>Slice 1</title>
    <desc>Created with Sketch.</desc>
    <defs></defs>
    <g id="Page-1" stroke="none" stroke-width="1" fill="none" fill-rule="evenodd" sketch:type="MSPage">
        <path d="M72.662,73.784 L59.988,7.644 L59.934,7.428 L58.383,2.765 L58.157,1.605 C58.039,1.015 57.648,0.506 57.101,0.257 C56.56,-0.001 55.919,0.026 55.392,0.328 C49.33,3.802 41.005,3.281 32.199,3.75 C23.457,4.221 13.99,6.024 6.605,15.075 C6.251,15.508 6.106,16.077 6.212,16.616 L6.23,16.69 C6.063,16.668 5.917,16.628 5.742,16.623 C5.352,16.623 4.928,16.668 4.49,16.752 C0.735,17.48 0.136,20.97 0.243,21.95 C0.243,22.219 0.261,22.402 0.274,22.474 C0.4,23.299 1.105,23.892 1.922,23.892 C2.007,23.892 2.088,23.886 2.179,23.872 C3.094,23.728 3.715,22.872 3.573,21.96 L3.573,21.95 C3.676,21.366 3.569,20.359 5.154,20.029 C5.37,19.989 5.558,19.971 5.742,19.971 C6.324,19.98 6.663,20.167 6.954,20.415 L7.371,22.558 C7.21,22.543 7.069,22.499 6.897,22.496 C6.507,22.496 6.085,22.543 5.645,22.623 C1.887,23.349 1.289,26.835 1.392,27.816 C1.392,28.091 1.414,28.275 1.425,28.343 C1.555,29.17 2.262,29.759 3.075,29.759 C3.164,29.759 3.248,29.749 3.328,29.738 C4.248,29.598 4.871,28.744 4.73,27.833 L4.73,27.816 C4.83,27.234 4.712,26.228 6.308,25.907 C6.526,25.858 6.713,25.844 6.896,25.844 C7.474,25.856 7.801,26.041 8.093,26.278 L8.51,28.421 C8.357,28.413 8.214,28.37 8.045,28.364 C7.655,28.364 7.233,28.405 6.792,28.502 C3.043,29.225 2.442,32.707 2.542,33.69 C2.542,33.96 2.567,34.145 2.579,34.212 C2.702,35.04 3.416,35.635 4.229,35.635 C4.318,35.635 4.401,35.626 4.488,35.614 C5.399,35.468 6.026,34.613 5.884,33.699 L5.884,33.69 C5.984,33.109 5.865,32.103 7.462,31.778 C7.68,31.727 7.861,31.713 8.044,31.713 C8.608,31.719 8.94,31.901 9.228,32.135 L9.65,34.304 C9.5,34.289 9.368,34.244 9.202,34.244 C8.812,34.244 8.396,34.281 7.951,34.369 C4.196,35.093 3.597,38.573 3.699,39.557 C3.699,39.812 3.714,39.99 3.729,40.042 C3.829,40.884 4.55,41.51 5.381,41.51 C5.452,41.51 5.525,41.5 5.597,41.492 C6.508,41.372 7.161,40.534 7.047,39.62 C7.041,39.62 7.041,39.557 7.041,39.557 C7.144,38.967 7.019,37.978 8.617,37.651 C8.826,37.603 9.018,37.583 9.201,37.583 C9.752,37.596 10.085,37.771 10.368,37.996 L10.79,40.172 C10.645,40.157 10.514,40.12 10.356,40.113 C9.961,40.113 9.539,40.153 9.1,40.245 C5.355,40.965 4.755,44.448 4.853,45.425 C4.853,45.7 4.874,45.892 4.884,45.952 C5.013,46.784 5.727,47.374 6.535,47.374 C6.622,47.374 6.705,47.368 6.794,47.359 C7.705,47.218 8.332,46.358 8.19,45.447 L8.19,45.425 C8.288,44.843 8.175,43.849 9.768,43.52 C9.987,43.473 10.178,43.453 10.356,43.453 C10.903,43.465 11.227,43.637 11.508,43.858 L11.93,46.044 C11.789,46.025 11.663,45.988 11.514,45.984 C11.121,45.984 10.705,46.021 10.262,46.113 C6.507,46.833 5.908,50.321 6.009,51.298 C6.009,51.573 6.033,51.765 6.045,51.826 C6.166,52.656 6.885,53.25 7.691,53.25 C7.774,53.25 7.861,53.242 7.946,53.228 C8.863,53.09 9.491,52.228 9.353,51.322 L9.353,51.299 C9.451,50.714 9.33,49.718 10.923,49.391 C11.142,49.345 11.334,49.329 11.514,49.329 C12.05,49.338 12.368,49.506 12.649,49.716 L13.076,51.913 C12.935,51.904 12.815,51.859 12.67,51.859 C12.274,51.859 11.857,51.904 11.42,51.984 C7.654,52.71 7.066,56.207 7.161,57.18 C7.161,57.438 7.175,57.611 7.187,57.667 C7.301,58.51 8.012,59.118 8.842,59.118 C8.914,59.118 8.992,59.118 9.069,59.109 C9.978,58.982 10.627,58.142 10.507,57.228 C10.502,57.228 10.502,57.179 10.502,57.179 C10.6,56.597 10.488,55.592 12.081,55.265 C12.299,55.214 12.485,55.203 12.669,55.203 C13.19,55.215 13.506,55.369 13.781,55.572 L14.21,57.774 C14.075,57.764 13.959,57.727 13.813,57.727 C13.423,57.727 13.001,57.768 12.56,57.859 C8.815,58.578 8.212,62.066 8.31,63.045 C8.31,63.321 8.335,63.503 8.344,63.571 C8.477,64.399 9.19,64.99 9.995,64.99 C10.084,64.99 10.169,64.981 10.256,64.972 C11.167,64.829 11.792,63.97 11.653,63.066 L11.653,63.045 C11.754,62.466 11.637,61.462 13.23,61.133 C13.45,61.086 13.636,61.071 13.812,61.071 C14.333,61.082 14.646,61.237 14.921,61.437 L15.348,63.65 C15.224,63.64 15.118,63.606 14.975,63.603 C14.583,63.603 14.163,63.634 13.725,63.727 C9.969,64.446 9.366,67.934 9.47,68.915 C9.47,69.19 9.497,69.376 9.503,69.445 C9.626,70.273 10.335,70.866 11.152,70.866 C11.237,70.866 11.317,70.858 11.406,70.845 C12.324,70.703 12.951,69.846 12.813,68.941 C12.802,68.941 12.813,68.915 12.813,68.915 C12.912,68.339 12.792,67.336 14.384,67.009 C14.608,66.961 14.79,66.946 14.974,66.946 C15.479,66.955 15.791,67.103 16.061,67.291 L16.488,69.525 C16.365,69.514 16.26,69.479 16.129,69.479 C15.733,69.479 15.317,69.514 14.881,69.609 C11.12,70.322 10.522,73.805 10.625,74.789 C10.625,75.066 10.646,75.241 10.658,75.316 C10.788,76.137 11.495,76.731 12.308,76.731 C12.395,76.731 12.48,76.726 12.569,76.71 C13.473,76.57 14.1,75.719 13.963,74.805 L13.963,74.788 C14.064,74.2 13.954,73.206 15.542,72.884 C15.755,72.829 15.946,72.818 16.129,72.818 C16.62,72.822 16.927,72.965 17.198,73.154 L17.629,75.387 C17.511,75.381 17.41,75.352 17.282,75.344 C16.891,75.344 16.465,75.381 16.03,75.475 C12.271,76.193 11.676,79.688 11.778,80.663 C11.778,80.925 11.791,81.09 11.801,81.147 L11.928,81.8 C11.99,82.03 12.94,85.54 16.842,85.661 C17.233,85.661 17.613,85.615 18.004,85.546 C18.7,85.408 19.255,85.162 19.754,84.879 C19.874,85.349 20.196,85.761 20.628,85.976 C20.872,86.099 21.139,86.158 21.405,86.158 C21.622,86.158 21.848,86.114 22.051,86.037 C27.113,83.934 37.261,82.555 47.14,81.173 C57.081,79.741 66.688,78.395 71.807,75.608 C72.459,75.235 72.8,74.505 72.662,73.784 L72.662,73.784 Z M66.51,59.812 L62.697,62.16 L61.591,56.766 L65.47,54.373 L66.51,59.812 L66.51,59.812 Z M64.714,50.443 L60.791,52.859 L59.686,47.465 L63.675,45.013 L64.714,50.443 L64.714,50.443 Z M62.926,41.083 L58.883,43.563 L57.779,38.169 L61.879,35.649 L62.926,41.083 L62.926,41.083 Z M60.08,26.278 L61.129,31.712 L56.977,34.266 L55.875,28.87 L60.08,26.278 L60.08,26.278 Z M58.04,15.611 L59.332,22.351 L55.07,24.967 L53.477,17.196 L58.04,15.611 L58.04,15.611 Z M17.396,82.255 C17.176,82.297 16.99,82.309 16.848,82.309 C16.15,82.297 15.88,82.043 15.562,81.688 C15.419,81.504 15.307,81.303 15.247,81.164 C15.184,81.023 15.193,81 15.184,81 L15.123,80.668 C15.123,80.679 15.123,80.658 15.123,80.658 C15.225,80.08 15.109,79.07 16.692,78.747 C16.916,78.701 17.106,78.681 17.288,78.681 C17.771,78.688 18.079,78.831 18.345,79.008 L18.814,81.436 C18.558,81.795 18.137,82.125 17.396,82.255 L17.396,82.255 Z M46.671,77.794 C38.662,78.927 30.549,79.987 24.609,81.611 C30.549,76.819 36.799,76.269 43.403,76.239 C45.427,76.239 47.473,76.299 49.51,76.299 C54.695,76.299 58.842,75.439 63.576,72.404 C64.216,71.991 64.549,71.217 64.399,70.461 L63.499,66.066 L67.266,63.748 L69.074,73.157 C64.617,75.127 55.7,76.548 46.671,77.794 L46.671,77.794 Z" id="Shape" fill="#000000" sketch:type="MSShapeGroup"></path>
    </g>
</svg>