<?xml version="1.0" encoding="UTF-8"?>
<svg width="158px" height="240px" viewBox="0 0 158 240" version="1.1" xmlns="http://www.w3.org/2000/svg" xmlns:xlink="http://www.w3.org/1999/xlink" xmlns:sketch="http://www.bohemiancoding.com/sketch/ns">
    <!-- Generator: Sketch 3.4.2 (15855) - http://www.bohemiancoding.com/sketch -->
    <title>noun_882789_cc</title>
    <desc>Created with Sketch.</desc>
    <defs></defs>
    <g id="Page-1" stroke="none" stroke-width="1" fill="none" fill-rule="evenodd" sketch:type="MSPage">
        <path d="M111.456,127.077 C104.249,121.942 97.663,119.106 92.538,117.542 C82.308,97.645 85.171,85.503 91.327,69.134 L131.839,49.416 C134.655,48.043 136.413,45.153 136.335,42.02 C136.253,38.883 134.355,36.089 131.468,34.861 L88.318,16.507 C89.052,18.146 89.636,19.874 90,21.693 C90.854,25.954 90.566,30.264 89.219,34.277 L109.051,42.713 L81.075,56.33 C68.948,56.075 56.819,55.817 44.688,55.563 C44.219,55.549 43.69,55.623 43.129,55.755 C40.896,55.908 38.83,56.597 37.086,57.518 C33.346,59.532 30.727,62.402 28.303,65.644 C24.135,71.348 20.657,78.607 17.438,86.538 C7.893,110.219 1.26,139.925 1.196,140.136 C0.227,144.447 2.934,148.725 7.247,149.697 C7.839,149.83 8.429,149.893 9.011,149.893 C12.669,149.893 15.972,147.367 16.808,143.646 C16.808,143.643 17.066,142.498 17.57,140.406 C19.33,133.093 24.043,114.572 30.054,98.285 C31.269,94.979 32.546,91.767 33.847,88.776 C36.363,102.491 41.349,113.922 48.054,128.441 C48.234,128.928 48.433,129.411 48.677,129.884 L48.675,129.885 C48.677,129.887 48.679,129.89 48.681,129.894 C48.683,129.899 48.685,129.906 48.691,129.915 L48.691,129.915 L48.693,129.914 L48.693,129.915 L48.693,129.915 C49.259,130.987 60.849,154.722 60.804,188.338 C60.804,199.168 59.624,211.038 56.536,223.617 C54.89,230.319 58.991,237.09 65.696,238.737 C66.698,238.983 67.7,239.101 68.688,239.101 C74.307,239.101 79.415,235.282 80.817,229.578 C84.422,214.888 85.805,200.984 85.805,188.338 C85.781,168.848 82.549,152.379 79.098,140.32 C79.873,140.5 80.676,140.61 81.5,140.637 C82.027,140.702 89.123,141.299 98.939,148.923 C108.953,156.747 122.203,172.274 133.187,203.972 C134.974,209.144 139.82,212.39 145,212.391 C146.355,212.391 147.732,212.168 149.086,211.701 C155.611,209.448 159.07,202.327 156.816,195.805 C143.878,158.286 126.599,137.815 111.456,127.077 L111.456,127.077 Z" id="Shape" fill="#000000" sketch:type="MSShapeGroup"></path>
        <circle id="Oval" fill="#000000" sketch:type="MSShapeGroup" transform="translate(65.976785, 26.502691) rotate(-11.332406) translate(-65.976785, -26.502691) " cx="65.9767845" cy="26.5026915" r="22.4999156"></circle>
    </g>
</svg>