<?xml version="1.0" encoding="UTF-8"?>
<svg width="27px" height="26px" viewBox="0 0 27 26" version="1.1" xmlns="http://www.w3.org/2000/svg" xmlns:xlink="http://www.w3.org/1999/xlink" xmlns:sketch="http://www.bohemiancoding.com/sketch/ns">
    <!-- Generator: Sketch 3.4.2 (15855) - http://www.bohemiancoding.com/sketch -->
    <title>Slice 1</title>
    <desc>Created with Sketch.</desc>
    <defs></defs>
    <g id="Page-1" stroke="none" stroke-width="1" fill="none" fill-rule="evenodd" sketch:type="MSPage">
        <path d="M0,3 L24,3 L24,0 L0,0 L0,3 L0,3 Z M6,1 L7,1 L7,2 L6,2 L6,1 L6,1 Z M4,1 L5,1 L5,2 L4,2 L4,1 L4,1 Z M2,1 L3,1 L3,2 L2,2 L2,1 L2,1 Z" id="Shape" fill="#000000" sketch:type="MSShapeGroup"></path>
        <path d="M15,14 C15,10.968 17.467,8.5 20.5,8.5 C21.828,8.5 23.049,8.974 24,9.761 L24,4 L0,4 L0,22 L13,22 L13,14 L15,14 L15,14 Z" id="Shape" fill="#000000" sketch:type="MSShapeGroup"></path>
        <path d="M25,14 C25,11.515 22.985,9.5 20.5,9.5 C18.015,9.5 16,11.515 16,14 L16,15 L14,15 L14,26 L27,26 L27,15 L25,15 L25,14 L25,14 Z M21,20.908 L21,23 L20,23 L20,20.908 C19.419,20.701 19,20.152 19,19.5 C19,18.672 19.672,18 20.5,18 C21.328,18 22,18.672 22,19.5 C22,20.152 21.581,20.701 21,20.908 L21,20.908 Z M24,15 L17,15 L17,14 C17,12.07 18.57,10.5 20.5,10.5 C22.43,10.5 24,12.07 24,14 L24,15 L24,15 Z" id="Shape" fill="#000000" sketch:type="MSShapeGroup"></path>
    </g>
</svg>